<svg width="600" height="600" xmlns="http://www.w3.org/2000/svg" preserveAspectRatio="xMidYMid">

 <g>
  <title>background</title>
  <rect fill="none" id="canvas_background" height="602" width="602" y="-1" x="-1"/>
 </g>
 <g>
  <title>Layer 1</title>
  <g stroke="null" id="svg_1">
   <path stroke="null" id="svg_2" fill="#ffffff" d="m350.233049,73.906433c2.330986,3.110015 4.38853,6.153004 6.57,9.385901c28.402201,42.093937 36.937476,92.513272 28.672948,143.856824c-0.52533,3.26492 -2.081117,3.405675 -4.286159,5.758295c-13.638391,14.551386 -26.766941,29.632278 -34.919668,48.783896c-3.426099,8.049845 -5.166424,17.089444 -6.833339,25.873599c-0.498391,2.627426 1.195463,7.562789 3.059714,8.461684c2.093241,1.009117 6.488507,-0.367899 8.197178,-2.421135c8.691528,-10.443425 17.061122,-21.243579 25.09666,-32.315561c5.48297,-7.554596 10.232497,-15.760091 15.826595,-23.39363c1.513356,16.704417 1.251365,33.12211 -5.670203,48.092781c-2.91289,9.534103 -6.665637,10.662378 -11.349161,16.407267c-5.328065,4.418516 -11.467698,11.139752 -15.240649,16.75059c-5.895152,10.447893 -5.581301,18.88947 3.253009,26.20873c0.554964,0.375347 3.465835,1.917694 4.408735,2.149306c-1.998276,1.479045 -3.756787,1.960889 -8.335919,3.433975c-0.162986,7.590344 -5.883702,12.650821 -7.557352,16.198741c-0.79069,3.401208 -1.085683,3.915075 -1.336226,7.707268c-2.159243,32.625371 -6.516793,67.931789 -17.492162,98.637977c-3.710316,10.380123 -8.182362,16.880918 -17.473978,21.184001c-1.111951,0.515357 -6.317438,3.501746 -6.986898,3.65963c2.287209,-4.017103 2.72027,-9.948921 -0.310484,-14.502233c-2.174734,-3.267154 -10.855485,-3.084695 -13.66331,-6.073317c0.53476,-0.135542 4.259893,0.175757 4.789937,0.19512c4.426247,0.16831 8.614075,-0.079687 9.912584,-6.106086c1.041232,-4.834823 -1.287059,-9.662942 -5.691081,-13.050745c-2.993037,-2.303466 -5.057318,-2.957344 -7.613927,-5.84245c-0.618274,-0.697816 -1.551746,-4.536183 -0.904512,-7.067539c0.088229,-0.345558 0.462695,-0.475141 0.704482,-0.235336c2.886624,2.862018 6.652841,5.893836 9.063974,9.081304c1.547031,1.565434 3.498837,3.361736 4.846512,3.343117c1.423781,-0.019362 2.243431,-1.933333 3.908326,-3.232897c3.832893,-3.772084 5.192017,-5.609347 7.605844,-10.764406c0.418244,-2.835208 -0.491656,-7.646944 -1.293121,-11.139753c-3.355381,-14.610964 -4.416145,-29.811016 -0.967821,-44.471132c2.471074,-10.506728 6.006953,-21.236132 11.284505,-30.285412c8.440312,-14.472444 8.830269,-27.713841 -0.012797,-41.573368c-15.114704,-23.68929 -13.375725,-47.6303 -1.128787,-71.908676c8.727223,-17.302439 19.955829,-32.361735 32.387979,-46.509474c2.573446,-2.9283 4.252484,-3.226939 4.963028,-7.23585c9.102363,-46.396274 3.502877,-93.450149 -16.539159,-134.709238c-0.887674,-1.779174 -8.37835,-13.280868 -8.491498,-13.931022c0.235725,-0.175014 9.310475,11.774268 9.5462,11.599254zm-81.963766,250.895491c-0.485594,-6.786029 -0.545535,-13.18852 -1.46015,-19.439084c-3.651047,-24.947148 -15.6104,-45.022237 -30.878664,-63.065688c-1.212975,-1.433615 -2.33166,-3.057883 -3.769584,-4.148921c-7.626723,-5.787339 -9.95232,-14.297432 -10.940346,-23.906008c-5.505869,-53.547224 6.799664,-101.041982 38.971449,-141.895935c0.214173,-0.272573 6.584144,-9.462609 7.622682,-9.916153c-9.021543,17.385849 -19.758493,34.367307 -24.850159,63.427629c-4.929352,28.135361 -4.981885,56.039109 0.340792,83.97786c0.543515,2.852337 2.434706,5.689034 4.319834,7.883025c13.36293,15.55529 25.944597,31.862017 33.61173,51.73007c3.676641,9.525166 6.157144,19.991678 7.222623,30.279454c1.445333,13.957087 -6.384787,22.945299 -20.190207,25.073753zm-13.584713,43.915858c12.194406,-8.971827 21.237501,-6.183538 26.340616,6.042039c5.42909,13.004571 8.880108,31.758499 9.474808,46.090188c-3.071164,-8.30678 -7.336444,-21.468489 -10.330828,-29.808781c-1.407617,-3.921032 -3.266479,-6.769645 -7.626724,-6.681766c-4.076027,0.08192 -6.762621,-2.557422 -7.644907,-6.777837c-0.405448,-1.939291 -0.891041,-4.84376 -1.955173,-6.156728c-1.773328,-2.188033 -4.704403,-2.231227 -8.257793,-2.707114zm-4.253292,-42.643402c-15.915497,-11.779481 -27.428993,-26.871546 -29.609115,-49.365534c8.759551,4.155624 24.64474,30.286157 29.609115,49.365534z"/>
   <g stroke="null" id="svg_22">
    <g stroke="null" transform="matrix(0.34138128492083036,0,0,0.43879794444327846,-1186.2841349557416,-614.4199083369983) " id="svg_6">
     <path stroke="null" id="svg_7" fill="#C0D84B" d="m4488.90096,1663.180164c-6.413,-17.741 -16.607,-33.673 -29.656,-46.777l-0.414,0.761l0,41.526l0.414,0.76c0.16,0.013 0.114,0.478 0.274,0.492c9.168,0.792 19.041,1.885 28.917,3.499c0.206,0.034 0.258,-0.295 0.465,-0.261"/>
     <path stroke="null" id="svg_8" fill="#65C1ED" d="m4459.24516,1659.450564l0,-43.047c-10.497,-10.537 -22.828,-19.239 -36.453,-25.626l-0.621,1.353l0,65.208l0.621,1.06c0.153,-0.005 0.742,0.5 0.895,0.496c11.069,-0.324 22.741,-0.024 35.036,0.986c0.319,0.026 0.202,-0.457 0.522,-0.43"/>
     <path stroke="null" id="svg_9" fill="#2F95D2" d="m4414.61676,1658.769764c0.217,-0.013 0.614,0.348 0.832,0.335c2.22,-0.128 4.434,-0.176 6.705,-0.252c0.261,-0.009 0.377,-0.446 0.638,-0.454l0,-67.622c-11.343,-5.316 -23.587,-9.009 -36.449,-10.797l-0.743,0.874l0,60.526l0.743,1.213c10.785,2.985 20.437,8.643 28.274,16.177"/>
     <path stroke="null" id="svg_10" fill="#1C75BC" d="m4422.79216,1668.182264l0.335,-0.534l0,-8.759l-0.335,-0.491c-2.761,0.086 -5.488,0.21 -8.175,0.371c2.998,2.881 5.756,6.014 8.175,9.413"/>
     <path stroke="null" id="svg_11" fill="#2A75BB" d="m4368.54866,1640.167764c6.167,0 12.128,0.856 17.794,2.425l0,-62.613c-5.817,-0.81 -11.751,-1.259 -17.794,-1.259c-6.339,0 -12.567,0.48 -18.661,1.37l-0.603,0.698l0,61.306l0.603,0.745c5.927,-1.727 12.181,-2.672 18.661,-2.672"/>
     <path stroke="null" id="svg_12" fill="#BF65A7" d="m4349.88786,1642.839264l0,-62.749c-12.871,1.879 -25.118,5.667 -36.444,11.078l-0.734,1.466l0,76.014l0.734,0.75c8.586,-12.653 21.416,-22.177 36.444,-26.559"/>
     <path stroke="null" id="svg_13" fill="#F37321" d="m4313.44436,1669.398964l0,-78.231c-13.671,6.53 -25.983,15.427 -36.45,26.14l-0.665,0.838l0,98.141l0.665,1.191c0.141,-0.142 0.345,0.426 0.487,0.284c7.252,-7.246 15.491,-14.329 24.815,-20.934c0.238,-0.168 0.415,-1.047 0.654,-1.215c1.612,-9.586 5.248,-18.484 10.494,-26.214z"/>
     <path stroke="null" id="svg_14" fill="#FFCF01" d="m4276.99396,1717.478164l0,-100.171c-22.537,23.074 -36.445,54.612 -36.445,89.414c0,16.201 3.049,31.675 8.544,45.937c0.183,-0.292 0.573,0.14 0.76,-0.153c6.754,-10.65 15.431,-22.162 26.411,-33.355c0.31,-0.316 0.416,-1.357 0.73,-1.672"/>
     <path stroke="null" id="svg_15" fill="#FAA61A" d="m4249.09356,1752.657764c6.309,16.377 15.859,31.141 27.901,43.475l0.506,-1.293l0,-76.145l-0.506,-1.217c-11.731,11.797 -20.882,23.988 -27.901,35.18"/>
     <path stroke="null" id="svg_16" fill="#ED1C24" d="m4301.99786,1706.721164c0,-3.788 0.343,-7.493 0.952,-11.108c-9.802,6.878 -18.417,14.286 -25.955,21.865l0,78.655c10.466,10.713 22.78,19.608 36.45,26.139l0.696,-0.75l0,-75.624l-0.696,-1.856c-7.223,-10.645 -11.447,-23.49 -11.447,-37.321"/>
     <path stroke="null" id="svg_17" fill="#27AAE1" d="m4422.79216,1658.398564l0,9.784c7.74,10.878 12.31,24.17 12.31,38.539c0,14.367 -4.57,27.659 -12.31,38.538l0,77.403c13.625,-6.389 25.956,-15.087 36.453,-25.628l1.181,-2.467l0,-134.047l-1.181,-1.07c-12.818,-1.087 -24.961,-1.407 -36.453,-1.052"/>
     <path stroke="null" id="svg_18" fill="#92278F" d="m4313.44436,1744.041864l0,78.23c11.325,5.412 23.574,9.198 36.444,11.081l0.828,-1.027l0,-60.916l-0.828,-0.808c-15.029,-4.382 -27.858,-13.909 -36.444,-26.56"/>
     <path stroke="null" id="svg_19" fill="#21409A" d="m4368.54866,1773.270264c-6.48,0 -12.734,-0.941 -18.661,-2.669l0,62.751c6.094,0.891 12.322,1.366 18.661,1.366c6.043,0 11.977,-0.447 17.794,-1.258l0.558,-1.396l0,-60.394l-0.558,-0.822c-5.666,1.568 -11.627,2.422 -17.794,2.422"/>
     <path stroke="null" id="svg_20" fill="#1C75BC" d="m4386.34256,1770.847864l0,62.612c12.862,-1.79 25.106,-5.479 36.45,-10.798l0.944,-1.855l0,-74.388l-0.944,-1.16c-8.743,12.279 -21.543,21.461 -36.45,25.589"/>
     <path stroke="null" id="svg_21" fill="#8DC63F" d="m4495.69216,1692.088364c-1.139,-10.038 -3.467,-19.711 -6.791,-28.908c-10.27,-1.696 -20.148,-2.922 -29.656,-3.731l0,137.584c19.811,-19.895 33.102,-46.278 36.447,-75.68c0.547,-4.807 0.856,-9.681 0.856,-14.633c0,-4.953 -0.309,-9.828 -0.856,-14.632"/>
    </g>
   </g>
  </g>
  <text xml:space="preserve" text-anchor="start" font-family="Helvetica, Arial, sans-serif" font-size="100" id="svg_24" y="457.5" x="-2.5" stroke-opacity="null" stroke-width="0" stroke="null" fill="#ffffff">乐趣</text>
  <text xml:space="preserve" text-anchor="start" font-family="Helvetica, Arial, sans-serif" font-size="100" id="svg_25" y="459.5" x="403.5" stroke-opacity="null" stroke-width="0" stroke="null" fill="#ffffff">看看</text>
 </g>
</svg>